<?xml version="1.0" encoding="UTF-8"?>
<svg xmlns="http://www.w3.org/2000/svg" viewBox="0 0 115 50">
  <defs>
    <style>
      .cls-1 {
        fill: none;
        stroke: #333;
        stroke-linecap: round;
        stroke-linejoin: round;
        stroke-width: 5px;
      }
    </style>
  </defs>
  <g id="g1">
    <polyline id="gge232" class="cls-1" points="2.5 47.5 2.5 2.5 22.5 2.5 27.5 12.5 32.5 2.5 52.5 2.5 52.5 47.5 37.5 47.5 37.5 17.5 27.5 32.5 17.5 17.5 17.5 47.5 2.5 47.5"/>
    <polyline id="gge235" class="cls-1" points="52.5 17.5 52.5 47.5 82.5 47.5 67.5 17.5 52.5 17.5"/>
    <polyline id="gge238" class="cls-1" points="52.5 2.5 52.5 17.5 82.5 17.5 82.5 2.5 52.5 2.5"/>
    <polyline id="gge241" class="cls-1" points="82.5 2.5 82.5 47.5 112.5 47.5 112.5 2.5 97.5 2.5 97.5 32.5 97.5 2.5 82.5 2.5"/>
  </g>
</svg>